<svg width="310" height="59" viewBox="0 0 310 59" fill="none" xmlns="http://www.w3.org/2000/svg">
<path fill-rule="evenodd" clip-rule="evenodd" d="M304.512 3H5.44767V3.28061L0.0591609 5.11365L5.44767 7.38835V7.41135L0 10.5879L5.16329 13.6177L0 16.6284L5.44767 19.8251V20.4316L0 23.6081L5.44767 26.8048V27.4114L0 30.5879L5.44767 33.7846V34.4519L0 37.6284L5.44767 40.8251V41.4316L0 44.6081L5.44767 47.8048V48.4114L0 51.5879L5.44767 54.7846V55H5.81479L5.97602 55.0946L5.97615 55H304.015V55.016L304.061 55H304.512V54.8467L309.941 53L304.529 50.7156L310 47.5258L304.837 44.4959L310 41.4853L304.512 38.265V37.7054L310 34.5055L304.512 31.2853V30.7257L310 27.5258L304.512 24.3056V23.6851L310 20.4853L304.512 17.265V16.7054L310 13.5055L304.512 10.2853V9.72566L310 6.52579L304.512 3.30557V3Z" fill="#B8E4E7"/>
<path d="M13.5283 16.4002L32.3231 16.8189L22.5678 33.1005L13.5283 16.4002Z" fill="#FFFBC7" fill-opacity="0.5"/>
<path d="M41.7092 31.2365L57.3242 41.8427L40.4508 50.2405L41.7092 31.2365Z" fill="#FFFBC7" fill-opacity="0.5"/>
<path d="M54.1574 4.84847L69.7724 15.4547L52.899 23.8525L54.1574 4.84847Z" fill="#FFFBC7" fill-opacity="0.5"/>
<path d="M75.8717 33.8485L91.4867 44.4547L74.6132 52.8525L75.8717 33.8485Z" fill="#FFFBC7" fill-opacity="0.5"/>
<path d="M89.6898 9.84847L105.305 20.4547L88.4314 28.8525L89.6898 9.84847Z" fill="#FFFBC7" fill-opacity="0.5"/>
<path d="M105.183 34.4898L123.827 32.0419L116.598 49.624L105.183 34.4898Z" fill="#FFFBC7" fill-opacity="0.5"/>
<path d="M124.589 14.1511L143.233 11.7031L136.003 29.2853L124.589 14.1511Z" fill="#FFFBC7" fill-opacity="0.5"/>
<path d="M150.91 19.2038L166.469 29.8937L149.552 38.2008L150.91 19.2038Z" fill="#FFFBC7" fill-opacity="0.5"/>
<path d="M176.572 8.79613L192.131 19.486L175.214 27.7931L176.572 8.79613Z" fill="#FFFBC7" fill-opacity="0.5"/>
<path d="M203.777 32.2773L195.089 49.1677L184.995 33.099L203.777 32.2773Z" fill="#FFFBC7" fill-opacity="0.5"/>
<path d="M234.375 9.2773L225.686 26.1677L215.593 10.099L234.375 9.2773Z" fill="#FFFBC7" fill-opacity="0.5"/>
<path d="M258.085 39.4047L240.499 46.1387L243.536 27.3421L258.085 39.4047Z" fill="#FFFBC7" fill-opacity="0.5"/>
<path d="M277.342 18.9587L259.279 24.24L263.796 5.75115L277.342 18.9587Z" fill="#FFFBC7" fill-opacity="0.5"/>
<path d="M282.641 44.1216L270.379 29.6841L288.851 26.1441L282.641 44.1216Z" fill="#FFFBC7" fill-opacity="0.5"/>
</svg>
