<svg width="1279" height="162" viewBox="0 0 1279 162" fill="none" xmlns="http://www.w3.org/2000/svg">
<path d="M1212 140.001C1242.2 149.262 1253.5 159.5 1279 159.5L1279 0.000152588L1.41625e-05 0.000147586L2.3028e-07 159.366C5.9823 159.366 24.9644 160.564 52.5 155.501C92.5565 148.136 122.059 126.203 168.393 126C227.032 125.743 241.976 162 318.25 162C394.524 162 404.001 127.101 459.133 126C527.857 124.627 561.431 159.366 635.013 159.366C708.596 159.366 722.455 126 778.589 126C834.722 126 884.476 159.366 922.164 159.366C983.184 159.366 1015.63 125.834 1075.61 126C1132.09 126.156 1168.42 126.635 1212 140.001Z" fill="#7190CD"/>
</svg>
