<svg width="307" height="49" viewBox="0 0 307 49" fill="none" xmlns="http://www.w3.org/2000/svg">
<path d="M3.8147e-06 14L29.6916 14.5L39.2153 26L25.7701 40.129H3.8147e-06L6.72263 26L3.8147e-06 14Z" fill="white"/>
<path d="M307 11L277.869 11.5L267.785 22.9407L278.989 37H307L300.277 22.9407L307 11Z" fill="white"/>
<path d="M287.953 1L288.32 1.33878L289.093 0.5H287.953V1ZM153.5 1L153.5 0.5L153.5 0.5L153.5 1ZM267.872 22.7971L267.504 22.4583L267.214 22.7735L267.481 23.1087L267.872 22.7971ZM287.953 48V48.5H288.99L288.344 47.6884L287.953 48ZM153.5 48L153.5 47.5L153.5 47.5L153.5 48ZM19.0474 48L18.6797 47.6612L17.907 48.5L19.0474 48.5L19.0474 48ZM39.128 26.2029L39.4957 26.5417L39.7861 26.2265L39.5191 25.8913L39.128 26.2029ZM19.0474 1.00003L19.0474 0.500031L18.0097 0.500031L18.6564 1.3116L19.0474 1.00003ZM287.953 0.5H153.5V1.5H287.953V0.5ZM268.24 23.1359L288.32 1.33878L287.585 0.661223L267.504 22.4583L268.24 23.1359ZM288.344 47.6884L268.263 22.4855L267.481 23.1087L287.562 48.3116L288.344 47.6884ZM153.5 48.5H287.953V47.5H153.5V48.5ZM19.0474 48.5L153.5 48.5L153.5 47.5L19.0474 47.5L19.0474 48.5ZM38.7603 25.8641L18.6797 47.6612L19.4152 48.3388L39.4957 26.5417L38.7603 25.8641ZM18.6564 1.3116L38.7369 26.5145L39.5191 25.8913L19.4385 0.688457L18.6564 1.3116ZM153.5 0.5L19.0474 0.500031L19.0474 1.50003L153.5 1.5L153.5 0.5Z" fill="white"/>
</svg>
