<svg width="256" height="64" viewBox="0 0 256 64" fill="none" xmlns="http://www.w3.org/2000/svg">
<rect x="0.94873" y="0.623535" width="254.476" height="63" fill="#E0FFFE" fill-opacity="0.5"/>
<path fill-rule="evenodd" clip-rule="evenodd" d="M253.068 2.90362C253.068 5.4221 252.018 7.46374 250.723 7.46374C249.428 7.46374 248.378 5.4221 248.378 2.90362C248.378 2.07301 248.492 1.29427 248.692 0.623535L236.924 0.623535C237.123 1.29422 237.237 2.07287 237.237 2.90338C237.237 5.42186 236.187 7.46349 234.892 7.46349C233.597 7.46349 232.547 5.42186 232.547 2.90338C232.547 2.07287 232.661 1.29422 232.86 0.623535L221.093 0.623535C221.292 1.29433 221.407 2.07316 221.407 2.90386C221.407 5.42235 220.357 7.46398 219.061 7.46398C217.766 7.46398 216.716 5.42235 216.716 2.90386C216.716 2.07316 216.83 1.29433 217.03 0.623535L205.262 0.623535C205.462 1.29427 205.576 2.07301 205.576 2.90362C205.576 5.4221 204.526 7.46374 203.231 7.46374C201.935 7.46374 200.885 5.4221 200.885 2.90362C200.885 2.07301 201 1.29427 201.199 0.623535L189.432 0.623535C189.631 1.29427 189.745 2.07301 189.745 2.90362C189.745 5.4221 188.695 7.46374 187.4 7.46374C186.105 7.46374 185.055 5.4221 185.055 2.90362C185.055 2.07301 185.169 1.29427 185.368 0.623535L173.601 0.623535C173.8 1.29427 173.915 2.07301 173.915 2.90362C173.915 5.4221 172.865 7.46374 171.569 7.46374C170.274 7.46374 169.224 5.4221 169.224 2.90362C169.224 2.07301 169.338 1.29427 169.538 0.623535L157.77 0.623535C157.969 1.29427 158.084 2.07301 158.084 2.90362C158.084 5.4221 157.034 7.46374 155.738 7.46374C154.443 7.46374 153.393 5.4221 153.393 2.90362C153.393 2.07301 153.507 1.29427 153.707 0.623535L141.939 0.623535C142.139 1.29433 142.253 2.07316 142.253 2.90386C142.253 5.42235 141.203 7.46398 139.908 7.46398C138.612 7.46398 137.562 5.42235 137.562 2.90386C137.562 2.07316 137.677 1.29433 137.876 0.623535L126.109 0.623535C126.308 1.29422 126.422 2.07287 126.422 2.90338C126.422 5.42186 125.372 7.46349 124.077 7.46349C122.782 7.46349 121.732 5.42186 121.732 2.90338C121.732 2.07287 121.846 1.29422 122.045 0.623535L110.278 0.623535C110.477 1.29427 110.591 2.07301 110.591 2.90362C110.591 5.4221 109.541 7.46374 108.246 7.46374C106.951 7.46374 105.901 5.4221 105.901 2.90362C105.901 2.07301 106.015 1.29427 106.215 0.623535L94.4469 0.623535C94.6465 1.29427 94.7607 2.07301 94.7607 2.90362C94.7607 5.4221 93.7107 7.46374 92.4154 7.46374C91.1201 7.46374 90.0701 5.4221 90.0701 2.90362C90.0701 2.07301 90.1843 1.29427 90.3839 0.623535L78.6162 0.623535C78.8157 1.29427 78.9299 2.07301 78.9299 2.90362C78.9299 5.4221 77.8799 7.46374 76.5846 7.46374C75.2894 7.46374 74.2393 5.4221 74.2393 2.90362C74.2393 2.07301 74.3535 1.29427 74.5531 0.623535L62.7853 0.623535C62.9848 1.29427 63.099 2.07301 63.099 2.90362C63.099 5.4221 62.049 7.46374 60.7537 7.46374C59.4585 7.46374 58.4084 5.4221 58.4084 2.90362C58.4084 2.07301 58.5226 1.29427 58.7222 0.623535L46.9546 0.623535C47.1543 1.29438 47.2685 2.0733 47.2685 2.90411C47.2685 5.42259 46.2185 7.46422 44.9232 7.46422C43.628 7.46422 42.5779 5.42259 42.5779 2.90411C42.5779 2.0733 42.6922 1.29438 42.8918 0.623535L31.1239 0.623535C31.3234 1.29427 31.4376 2.07301 31.4376 2.90362C31.4376 5.4221 30.3876 7.46374 29.0923 7.46374C27.7971 7.46374 26.747 5.4221 26.747 2.90362C26.747 2.07301 26.8612 1.29427 27.0608 0.623535L15.2932 0.623535C15.4927 1.29422 15.6069 2.07287 15.6069 2.90338C15.6069 5.42186 14.5568 7.46349 13.2616 7.46349C11.9663 7.46349 10.9163 5.42186 10.9163 2.90338C10.9163 2.07287 11.0304 1.29422 11.2299 0.623535L0.94873 0.623535L0.94873 63.3251H11.2299C11.0303 62.6544 10.9161 61.8756 10.9161 61.045C10.9161 58.5265 11.9661 56.4849 13.2614 56.4849C14.5567 56.4849 15.6067 58.5265 15.6067 61.045C15.6067 61.8756 15.4925 62.6544 15.2929 63.3251H27.0607C26.8612 62.6544 26.747 61.8757 26.747 61.0452C26.747 58.5267 27.7971 56.4851 29.0923 56.4851C30.3876 56.4851 31.4376 58.5267 31.4376 61.0452C31.4376 61.8757 31.3234 62.6544 31.1239 63.3251H42.8916C42.6921 62.6545 42.5779 61.8759 42.5779 61.0455C42.5779 58.527 43.628 56.4854 44.9232 56.4854C46.2185 56.4854 47.2685 58.527 47.2685 61.0455C47.2685 61.8759 47.1544 62.6545 46.9549 63.3251H58.7222C58.5227 62.6544 58.4084 61.8756 58.4084 61.045C58.4084 58.5265 59.4585 56.4849 60.7537 56.4849C62.049 56.4849 63.099 58.5265 63.099 61.045C63.099 61.8756 62.9848 62.6544 62.7852 63.3251L74.5531 63.3251C74.3535 62.6544 74.2393 61.8756 74.2393 61.045C74.2393 58.5265 75.2894 56.4849 76.5846 56.4849C77.8799 56.4849 78.9299 58.5265 78.9299 61.045C78.9299 61.8756 78.8157 62.6544 78.6162 63.3251H90.3839C90.1844 62.6544 90.0702 61.8757 90.0702 61.0452C90.0702 58.5267 91.1203 56.4851 92.4155 56.4851C93.7108 56.4851 94.7608 58.5267 94.7608 61.0452C94.7608 61.8757 94.6466 62.6544 94.4471 63.3251H106.215C106.015 62.6544 105.901 61.8756 105.901 61.045C105.901 58.5265 106.951 56.4849 108.246 56.4849C109.541 56.4849 110.591 58.5265 110.591 61.045C110.591 61.8756 110.477 62.6544 110.278 63.3251H122.045C121.846 62.6544 121.732 61.8756 121.732 61.045C121.732 58.5265 122.782 56.4849 124.077 56.4849C125.372 56.4849 126.422 58.5265 126.422 61.045C126.422 61.8756 126.308 62.6544 126.108 63.3251H137.876C137.677 62.6545 137.562 61.8759 137.562 61.0455C137.562 58.527 138.612 56.4854 139.908 56.4854C141.203 56.4854 142.253 58.527 142.253 61.0455C142.253 61.8759 142.139 62.6545 141.939 63.3251H153.707C153.507 62.6544 153.393 61.8757 153.393 61.0452C153.393 58.5267 154.443 56.4851 155.738 56.4851C157.034 56.4851 158.084 58.5267 158.084 61.0452C158.084 61.8757 157.969 62.6544 157.77 63.3251H169.538C169.338 62.6544 169.224 61.8757 169.224 61.0452C169.224 58.5267 170.274 56.4851 171.569 56.4851C172.865 56.4851 173.915 58.5267 173.915 61.0452C173.915 61.8757 173.8 62.6544 173.601 63.3251H185.368C185.169 62.6544 185.055 61.8756 185.055 61.045C185.055 58.5265 186.105 56.4849 187.4 56.4849C188.695 56.4849 189.745 58.5265 189.745 61.045C189.745 61.8756 189.631 62.6544 189.431 63.3251L201.199 63.3251C201 62.6544 200.885 61.8756 200.885 61.045C200.885 58.5265 201.935 56.4849 203.231 56.4849C204.526 56.4849 205.576 58.5265 205.576 61.045C205.576 61.8756 205.462 62.6544 205.262 63.3251H217.03C216.83 62.6544 216.716 61.8757 216.716 61.0452C216.716 58.5267 217.766 56.4851 219.062 56.4851C220.357 56.4851 221.407 58.5267 221.407 61.0452C221.407 61.8757 221.293 62.6544 221.093 63.3251H232.861C232.661 62.6544 232.547 61.8757 232.547 61.0452C232.547 58.5267 233.597 56.4851 234.892 56.4851C236.187 56.4851 237.237 58.5267 237.237 61.0452C237.237 61.8757 237.123 62.6544 236.924 63.3251H248.691C248.492 62.6545 248.378 61.8759 248.378 61.0455C248.378 58.527 249.428 56.4854 250.723 56.4854C252.018 56.4854 253.068 58.527 253.068 61.0455C253.068 61.8759 252.954 62.6545 252.755 63.3251H256V0.623535L252.755 0.623535C252.954 1.29427 253.068 2.07301 253.068 2.90362ZM7.9845 12.0236C7.9845 14.5421 6.93447 16.5837 5.6392 16.5837C4.34393 16.5837 3.2939 14.5421 3.2939 12.0236C3.2939 9.50509 4.34393 7.46346 5.6392 7.46346C6.93447 7.46346 7.9845 9.50509 7.9845 12.0236ZM7.9845 31.4041C7.9845 33.9226 6.93447 35.9642 5.6392 35.9642C4.34393 35.9642 3.2939 33.9226 3.2939 31.4041C3.2939 28.8856 4.34393 26.844 5.6392 26.844C6.93447 26.844 7.9845 28.8856 7.9845 31.4041ZM13.2614 26.8441C14.5567 26.8441 15.6067 24.8025 15.6067 22.284C15.6067 19.7655 14.5567 17.7239 13.2614 17.7239C11.9661 17.7239 10.9161 19.7655 10.9161 22.284C10.9161 24.8025 11.9661 26.8441 13.2614 26.8441ZM7.9845 50.7847C7.9845 53.3031 6.93447 55.3448 5.6392 55.3448C4.34393 55.3448 3.2939 53.3031 3.2939 50.7847C3.2939 48.2662 4.34393 46.2245 5.6392 46.2245C6.93447 46.2245 7.9845 48.2662 7.9845 50.7847ZM13.2613 46.2242C14.5566 46.2242 15.6066 44.1826 15.6066 41.6641C15.6066 39.1456 14.5566 37.104 13.2613 37.104C11.966 37.104 10.916 39.1456 10.916 41.6641C10.916 44.1826 11.966 46.2242 13.2613 46.2242ZM132.286 16.5842C133.581 16.5842 134.631 14.5425 134.631 12.0241C134.631 9.50558 133.581 7.46395 132.286 7.46395C130.99 7.46395 129.94 9.50558 129.94 12.0241C129.94 14.5425 130.99 16.5842 132.286 16.5842ZM132.286 35.9647C133.581 35.9647 134.631 33.9231 134.631 31.4046C134.631 28.8861 133.581 26.8445 132.286 26.8445C130.99 26.8445 129.94 28.8861 129.94 31.4046C129.94 33.9231 130.99 35.9647 132.286 35.9647ZM142.253 22.2845C142.253 24.803 141.203 26.8446 139.908 26.8446C138.612 26.8446 137.562 24.803 137.562 22.2845C137.562 19.766 138.612 17.7244 139.908 17.7244C141.203 17.7244 142.253 19.766 142.253 22.2845ZM132.286 55.3453C133.581 55.3453 134.631 53.3036 134.631 50.7851C134.631 48.2667 133.581 46.225 132.286 46.225C130.99 46.225 129.94 48.2667 129.94 50.7851C129.94 53.3036 130.99 55.3453 132.286 55.3453ZM142.253 41.6649C142.253 44.1833 141.203 46.225 139.908 46.225C138.612 46.225 137.562 44.1833 137.562 41.6649C137.562 39.1464 138.612 37.1047 139.908 37.1047C141.203 37.1047 142.253 39.1464 142.253 41.6649ZM71.3077 12.0238C71.3077 14.5423 70.2577 16.5839 68.9624 16.5839C67.6671 16.5839 66.6171 14.5423 66.6171 12.0238C66.6171 9.50534 67.6671 7.4637 68.9624 7.4637C70.2577 7.4637 71.3077 9.50534 71.3077 12.0238ZM71.3077 31.4044C71.3077 33.9228 70.2577 35.9645 68.9624 35.9645C67.6671 35.9645 66.6171 33.9228 66.6171 31.4044C66.6171 28.8859 67.6671 26.8442 68.9624 26.8442C70.2577 26.8442 71.3077 28.8859 71.3077 31.4044ZM76.5846 26.8444C77.8799 26.8444 78.9299 24.8027 78.9299 22.2842C78.9299 19.7658 77.8799 17.7241 76.5846 17.7241C75.2894 17.7241 74.2393 19.7658 74.2393 22.2842C74.2393 24.8027 75.2894 26.8444 76.5846 26.8444ZM71.3077 50.7849C71.3077 53.3034 70.2577 55.345 68.9624 55.345C67.6671 55.345 66.6171 53.3034 66.6171 50.7849C66.6171 48.2664 67.6671 46.2248 68.9624 46.2248C70.2577 46.2248 71.3077 48.2664 71.3077 50.7849ZM76.5846 46.2247C77.8799 46.2247 78.9299 44.1831 78.9299 41.6646C78.9299 39.1461 77.8799 37.1045 76.5846 37.1045C75.2894 37.1045 74.2393 39.1461 74.2393 41.6646C74.2393 44.1831 75.2894 46.2247 76.5846 46.2247ZM195.609 16.5839C196.904 16.5839 197.954 14.5423 197.954 12.0238C197.954 9.50534 196.904 7.4637 195.609 7.4637C194.313 7.4637 193.263 9.50534 193.263 12.0238C193.263 14.5423 194.313 16.5839 195.609 16.5839ZM195.609 35.9645C196.904 35.9645 197.954 33.9228 197.954 31.4044C197.954 28.8859 196.904 26.8442 195.609 26.8442C194.313 26.8442 193.263 28.8859 193.263 31.4044C193.263 33.9228 194.313 35.9645 195.609 35.9645ZM205.576 22.284C205.576 24.8025 204.526 26.8441 203.231 26.8441C201.935 26.8441 200.885 24.8025 200.885 22.284C200.885 19.7655 201.935 17.7239 203.231 17.7239C204.526 17.7239 205.576 19.7655 205.576 22.284ZM195.609 55.345C196.904 55.345 197.954 53.3034 197.954 50.7849C197.954 48.2664 196.904 46.2248 195.609 46.2248C194.313 46.2248 193.263 48.2664 193.263 50.7849C193.263 53.3034 194.313 55.345 195.609 55.345ZM205.576 41.6646C205.576 44.1831 204.526 46.2247 203.231 46.2247C201.935 46.2247 200.885 44.1831 200.885 41.6646C200.885 39.1461 201.935 37.1045 203.231 37.1045C204.526 37.1045 205.576 39.1461 205.576 41.6646ZM39.6462 12.024C39.6462 14.5425 38.5962 16.5841 37.3009 16.5841C36.0056 16.5841 34.9556 14.5425 34.9556 12.024C34.9556 9.5055 36.0056 7.46387 37.3009 7.46387C38.5962 7.46387 39.6462 9.5055 39.6462 12.024ZM39.6462 31.4046C39.6462 33.9231 38.5962 35.9647 37.3009 35.9647C36.0056 35.9647 34.9556 33.9231 34.9556 31.4046C34.9556 28.8861 36.0056 26.8445 37.3009 26.8445C38.5962 26.8445 39.6462 28.8861 39.6462 31.4046ZM44.9232 26.8446C46.2185 26.8446 47.2685 24.803 47.2685 22.2845C47.2685 19.766 46.2185 17.7244 44.9232 17.7244C43.628 17.7244 42.5779 19.766 42.5779 22.2845C42.5779 24.803 43.628 26.8446 44.9232 26.8446ZM39.6462 50.7852C39.6462 53.3037 38.5962 55.3453 37.3009 55.3453C36.0056 55.3453 34.9556 53.3037 34.9556 50.7852C34.9556 48.2667 36.0056 46.2251 37.3009 46.2251C38.5962 46.2251 39.6462 48.2667 39.6462 50.7852ZM44.9232 46.2252C46.2185 46.2252 47.2685 44.1836 47.2685 41.6651C47.2685 39.1466 46.2185 37.105 44.9232 37.105C43.628 37.105 42.5779 39.1466 42.5779 41.6651C42.5779 44.1836 43.628 46.2252 44.9232 46.2252ZM163.947 16.5839C165.242 16.5839 166.292 14.5423 166.292 12.0238C166.292 9.50534 165.242 7.4637 163.947 7.4637C162.652 7.4637 161.602 9.50534 161.602 12.0238C161.602 14.5423 162.652 16.5839 163.947 16.5839ZM163.947 35.9645C165.242 35.9645 166.292 33.9228 166.292 31.4044C166.292 28.8859 165.242 26.8442 163.947 26.8442C162.652 26.8442 161.602 28.8859 161.602 31.4044C161.602 33.9228 162.652 35.9645 163.947 35.9645ZM173.915 22.2842C173.915 24.8027 172.865 26.8444 171.569 26.8444C170.274 26.8444 169.224 24.8027 169.224 22.2842C169.224 19.7658 170.274 17.7241 171.569 17.7241C172.865 17.7241 173.915 19.7658 173.915 22.2842ZM163.947 55.345C165.242 55.345 166.292 53.3034 166.292 50.7849C166.292 48.2664 165.242 46.2248 163.947 46.2248C162.652 46.2248 161.602 48.2664 161.602 50.7849C161.602 53.3034 162.652 55.345 163.947 55.345ZM173.915 41.6646C173.915 44.1831 172.865 46.2247 171.569 46.2247C170.274 46.2247 169.224 44.1831 169.224 41.6646C169.224 39.1461 170.274 37.1045 171.569 37.1045C172.865 37.1045 173.915 39.1461 173.915 41.6646ZM102.969 12.0238C102.969 14.5423 101.919 16.5839 100.624 16.5839C99.3286 16.5839 98.2786 14.5423 98.2786 12.0238C98.2786 9.50534 99.3286 7.4637 100.624 7.4637C101.919 7.4637 102.969 9.50534 102.969 12.0238ZM102.969 31.4044C102.969 33.9228 101.919 35.9645 100.624 35.9645C99.3286 35.9645 98.2786 33.9228 98.2786 31.4044C98.2786 28.8859 99.3286 26.8442 100.624 26.8442C101.919 26.8442 102.969 28.8859 102.969 31.4044ZM108.246 26.8441C109.541 26.8441 110.591 24.8025 110.591 22.284C110.591 19.7655 109.541 17.7239 108.246 17.7239C106.951 17.7239 105.901 19.7655 105.901 22.284C105.901 24.8025 106.951 26.8441 108.246 26.8441ZM102.969 50.7849C102.969 53.3034 101.919 55.345 100.624 55.345C99.3286 55.345 98.2786 53.3034 98.2786 50.7849C98.2786 48.2664 99.3286 46.2248 100.624 46.2248C101.919 46.2248 102.969 48.2664 102.969 50.7849ZM108.246 46.2247C109.541 46.2247 110.591 44.1831 110.591 41.6646C110.591 39.1461 109.541 37.1045 108.246 37.1045C106.951 37.1045 105.901 39.1461 105.901 41.6646C105.901 44.1831 106.951 46.2247 108.246 46.2247ZM227.27 16.5839C228.565 16.5839 229.615 14.5422 229.615 12.0237C229.615 9.50526 228.565 7.46362 227.27 7.46362C225.975 7.46362 224.925 9.50526 224.925 12.0237C224.925 14.5422 225.975 16.5839 227.27 16.5839ZM227.27 35.9645C228.565 35.9645 229.615 33.9228 229.615 31.4044C229.615 28.8859 228.565 26.8442 227.27 26.8442C225.975 26.8442 224.925 28.8859 224.925 31.4044C224.925 33.9228 225.975 35.9645 227.27 35.9645ZM237.237 22.2842C237.237 24.8027 236.187 26.8444 234.892 26.8444C233.597 26.8444 232.547 24.8027 232.547 22.2842C232.547 19.7658 233.597 17.7241 234.892 17.7241C236.187 17.7241 237.237 19.7658 237.237 22.2842ZM227.27 55.3451C228.565 55.3451 229.615 53.3035 229.615 50.785C229.615 48.2665 228.565 46.2249 227.27 46.2249C225.975 46.2249 224.925 48.2665 224.925 50.785C224.925 53.3035 225.975 55.3451 227.27 55.3451ZM237.237 41.6644C237.237 44.1828 236.187 46.2245 234.892 46.2245C233.597 46.2245 232.547 44.1828 232.547 41.6644C232.547 39.1459 233.597 37.1042 234.892 37.1042C236.187 37.1042 237.237 39.1459 237.237 41.6644ZM23.8153 12.0235C23.8153 14.542 22.7653 16.5836 21.47 16.5836C20.1747 16.5836 19.1247 14.542 19.1247 12.0235C19.1247 9.50501 20.1747 7.46338 21.47 7.46338C22.7653 7.46338 23.8153 9.50501 23.8153 12.0235ZM23.8153 31.4041C23.8153 33.9226 22.7653 35.9642 21.47 35.9642C20.1747 35.9642 19.1247 33.9226 19.1247 31.4041C19.1247 28.8856 20.1747 26.844 21.47 26.844C22.7653 26.844 23.8153 28.8856 23.8153 31.4041ZM29.0923 26.8441C30.3876 26.8441 31.4376 24.8025 31.4376 22.284C31.4376 19.7655 30.3876 17.7239 29.0923 17.7239C27.7971 17.7239 26.747 19.7655 26.747 22.284C26.747 24.8025 27.7971 26.8441 29.0923 26.8441ZM23.8153 50.7847C23.8153 53.3032 22.7653 55.3448 21.47 55.3448C20.1747 55.3448 19.1247 53.3032 19.1247 50.7847C19.1247 48.2662 20.1747 46.2246 21.47 46.2246C22.7653 46.2246 23.8153 48.2662 23.8153 50.7847ZM29.0923 46.2245C30.3876 46.2245 31.4376 44.1828 31.4376 41.6644C31.4376 39.1459 30.3876 37.1042 29.0923 37.1042C27.7971 37.1042 26.747 39.1459 26.747 41.6644C26.747 44.1828 27.7971 46.2245 29.0923 46.2245ZM148.116 16.5839C149.412 16.5839 150.462 14.5423 150.462 12.0238C150.462 9.50534 149.412 7.4637 148.116 7.4637C146.821 7.4637 145.771 9.50534 145.771 12.0238C145.771 14.5423 146.821 16.5839 148.116 16.5839ZM148.116 35.9645C149.412 35.9645 150.462 33.9228 150.462 31.4044C150.462 28.8859 149.412 26.8442 148.116 26.8442C146.821 26.8442 145.771 28.8859 145.771 31.4044C145.771 33.9228 146.821 35.9645 148.116 35.9645ZM158.084 22.2842C158.084 24.8027 157.034 26.8444 155.738 26.8444C154.443 26.8444 153.393 24.8027 153.393 22.2842C153.393 19.7658 154.443 17.7241 155.738 17.7241C157.034 17.7241 158.084 19.7658 158.084 22.2842ZM148.116 55.345C149.412 55.345 150.462 53.3034 150.462 50.7849C150.462 48.2664 149.412 46.2248 148.116 46.2248C146.821 46.2248 145.771 48.2664 145.771 50.7849C145.771 53.3034 146.821 55.345 148.116 55.345ZM158.084 41.6646C158.084 44.1831 157.034 46.2247 155.738 46.2247C154.443 46.2247 153.393 44.1831 153.393 41.6646C153.393 39.1461 154.443 37.1045 155.738 37.1045C157.034 37.1045 158.084 39.1461 158.084 41.6646ZM87.1385 12.0238C87.1385 14.5423 86.0885 16.5839 84.7932 16.5839C83.498 16.5839 82.4479 14.5423 82.4479 12.0238C82.4479 9.50534 83.498 7.4637 84.7932 7.4637C86.0885 7.4637 87.1385 9.50534 87.1385 12.0238ZM87.1385 31.4044C87.1385 33.9228 86.0885 35.9645 84.7932 35.9645C83.498 35.9645 82.4479 33.9228 82.4479 31.4044C82.4479 28.8859 83.498 26.8442 84.7932 26.8442C86.0885 26.8442 87.1385 28.8859 87.1385 31.4044ZM92.4155 26.8444C93.7108 26.8444 94.7608 24.8027 94.7608 22.2842C94.7608 19.7658 93.7108 17.7241 92.4155 17.7241C91.1203 17.7241 90.0702 19.7658 90.0702 22.2842C90.0702 24.8027 91.1203 26.8444 92.4155 26.8444ZM87.1385 50.7849C87.1385 53.3034 86.0885 55.345 84.7932 55.345C83.498 55.345 82.4479 53.3034 82.4479 50.7849C82.4479 48.2664 83.498 46.2248 84.7932 46.2248C86.0885 46.2248 87.1385 48.2664 87.1385 50.7849ZM92.4154 46.2247C93.7107 46.2247 94.7607 44.1831 94.7607 41.6646C94.7607 39.1461 93.7107 37.1045 92.4154 37.1045C91.1201 37.1045 90.0701 39.1461 90.0701 41.6646C90.0701 44.1831 91.1201 46.2247 92.4154 46.2247ZM211.439 16.5842C212.735 16.5842 213.785 14.5425 213.785 12.0241C213.785 9.50558 212.735 7.46395 211.439 7.46395C210.144 7.46395 209.094 9.50558 209.094 12.0241C209.094 14.5425 210.144 16.5842 211.439 16.5842ZM211.439 35.9647C212.735 35.9647 213.785 33.9231 213.785 31.4046C213.785 28.8861 212.735 26.8445 211.439 26.8445C210.144 26.8445 209.094 28.8861 209.094 31.4046C209.094 33.9231 210.144 35.9647 211.439 35.9647ZM221.407 22.2842C221.407 24.8027 220.357 26.8444 219.062 26.8444C217.766 26.8444 216.716 24.8027 216.716 22.2842C216.716 19.7658 217.766 17.7241 219.062 17.7241C220.357 17.7241 221.407 19.7658 221.407 22.2842ZM211.439 55.3453C212.735 55.3453 213.785 53.3036 213.785 50.7851C213.785 48.2667 212.735 46.225 211.439 46.225C210.144 46.225 209.094 48.2667 209.094 50.7851C209.094 53.3036 210.144 55.3453 211.439 55.3453ZM221.407 41.6649C221.407 44.1833 220.357 46.225 219.062 46.225C217.766 46.225 216.716 44.1833 216.716 41.6649C216.716 39.1464 217.766 37.1047 219.062 37.1047C220.357 37.1047 221.407 39.1464 221.407 41.6649ZM55.4769 12.0238C55.4769 14.5423 54.4268 16.5839 53.1316 16.5839C51.8363 16.5839 50.7863 14.5423 50.7863 12.0238C50.7863 9.50534 51.8363 7.4637 53.1316 7.4637C54.4268 7.4637 55.4769 9.50534 55.4769 12.0238ZM55.4769 31.4044C55.4769 33.9228 54.4268 35.9645 53.1316 35.9645C51.8363 35.9645 50.7863 33.9228 50.7863 31.4044C50.7863 28.8859 51.8363 26.8442 53.1316 26.8442C54.4268 26.8442 55.4769 28.8859 55.4769 31.4044ZM60.7537 26.8441C62.049 26.8441 63.099 24.8025 63.099 22.284C63.099 19.7655 62.049 17.7239 60.7537 17.7239C59.4585 17.7239 58.4084 19.7655 58.4084 22.284C58.4084 24.8025 59.4585 26.8441 60.7537 26.8441ZM55.4769 50.7849C55.4769 53.3034 54.4268 55.345 53.1316 55.345C51.8363 55.345 50.7863 53.3034 50.7863 50.7849C50.7863 48.2664 51.8363 46.2248 53.1316 46.2248C54.4268 46.2248 55.4769 48.2664 55.4769 50.7849ZM60.7537 46.2247C62.049 46.2247 63.099 44.1831 63.099 41.6646C63.099 39.1461 62.049 37.1045 60.7537 37.1045C59.4585 37.1045 58.4084 39.1461 58.4084 41.6646C58.4084 44.1831 59.4585 46.2247 60.7537 46.2247ZM179.778 16.5839C181.073 16.5839 182.123 14.5423 182.123 12.0238C182.123 9.50534 181.073 7.4637 179.778 7.4637C178.483 7.4637 177.433 9.50534 177.433 12.0238C177.433 14.5423 178.483 16.5839 179.778 16.5839ZM179.778 35.9645C181.073 35.9645 182.123 33.9228 182.123 31.4044C182.123 28.8859 181.073 26.8442 179.778 26.8442C178.483 26.8442 177.433 28.8859 177.433 31.4044C177.433 33.9228 178.483 35.9645 179.778 35.9645ZM189.745 22.284C189.745 24.8025 188.695 26.8441 187.4 26.8441C186.105 26.8441 185.055 24.8025 185.055 22.284C185.055 19.7655 186.105 17.7239 187.4 17.7239C188.695 17.7239 189.745 19.7655 189.745 22.284ZM179.778 55.345C181.073 55.345 182.123 53.3034 182.123 50.7849C182.123 48.2664 181.073 46.2248 179.778 46.2248C178.483 46.2248 177.433 48.2664 177.433 50.7849C177.433 53.3034 178.483 55.345 179.778 55.345ZM189.745 41.6646C189.745 44.1831 188.695 46.2247 187.4 46.2247C186.105 46.2247 185.055 44.1831 185.055 41.6646C185.055 39.1461 186.105 37.1045 187.4 37.1045C188.695 37.1045 189.745 39.1461 189.745 41.6646ZM118.8 12.0237C118.8 14.5422 117.75 16.5839 116.455 16.5839C115.159 16.5839 114.109 14.5422 114.109 12.0237C114.109 9.50526 115.159 7.46362 116.455 7.46362C117.75 7.46362 118.8 9.50526 118.8 12.0237ZM118.8 31.4044C118.8 33.9228 117.75 35.9645 116.455 35.9645C115.159 35.9645 114.109 33.9228 114.109 31.4044C114.109 28.8859 115.159 26.8442 116.455 26.8442C117.75 26.8442 118.8 28.8859 118.8 31.4044ZM124.077 26.8444C125.372 26.8444 126.422 24.8027 126.422 22.2842C126.422 19.7658 125.372 17.7241 124.077 17.7241C122.782 17.7241 121.732 19.7658 121.732 22.2842C121.732 24.8027 122.782 26.8444 124.077 26.8444ZM118.8 50.785C118.8 53.3035 117.75 55.3451 116.455 55.3451C115.159 55.3451 114.109 53.3035 114.109 50.785C114.109 48.2665 115.159 46.2249 116.455 46.2249C117.75 46.2249 118.8 48.2665 118.8 50.785ZM124.077 46.2245C125.372 46.2245 126.422 44.1828 126.422 41.6644C126.422 39.1459 125.372 37.1042 124.077 37.1042C122.782 37.1042 121.732 39.1459 121.732 41.6644C121.732 44.1828 122.782 46.2245 124.077 46.2245ZM243.101 16.5839C244.396 16.5839 245.446 14.5423 245.446 12.0238C245.446 9.50534 244.396 7.4637 243.101 7.4637C241.806 7.4637 240.756 9.50534 240.756 12.0238C240.756 14.5423 241.806 16.5839 243.101 16.5839ZM243.101 35.9645C244.396 35.9645 245.446 33.9228 245.446 31.4044C245.446 28.8859 244.396 26.8442 243.101 26.8442C241.806 26.8442 240.756 28.8859 240.756 31.4044C240.756 33.9228 241.806 35.9645 243.101 35.9645ZM253.068 22.2845C253.068 24.803 252.018 26.8446 250.723 26.8446C249.428 26.8446 248.378 24.803 248.378 22.2845C248.378 19.766 249.428 17.7244 250.723 17.7244C252.018 17.7244 253.068 19.766 253.068 22.2845ZM243.101 55.345C244.396 55.345 245.446 53.3034 245.446 50.7849C245.446 48.2664 244.396 46.2248 243.101 46.2248C241.806 46.2248 240.756 48.2664 240.756 50.7849C240.756 53.3034 241.806 55.345 243.101 55.345ZM253.068 41.6646C253.068 44.1831 252.018 46.2247 250.723 46.2247C249.428 46.2247 248.378 44.1831 248.378 41.6646C248.378 39.1461 249.428 37.1045 250.723 37.1045C252.018 37.1045 253.068 39.1461 253.068 41.6646Z" fill="#FFE5FB" fill-opacity="0.7"/>
</svg>
