<svg width="473" height="572" viewBox="0 0 473 572" fill="none" xmlns="http://www.w3.org/2000/svg">
<path fill-rule="evenodd" clip-rule="evenodd" d="M162.636 0.158543C159.043 0.0531241 155.435 0 151.813 0C139.397 0 127.146 0.62426 115.096 1.83936L-158.55 209.831C-162.713 223.268 -165.798 237.101 -167.72 251.253L162.636 0.158543ZM-170 290.888C-169.793 301.458 -168.94 311.889 -167.474 322.15L241.555 11.2574C230.333 8.37016 218.859 6.01068 207.169 4.21123L-170 290.888ZM-151.291 382.203C-154.891 373.276 -158.005 364.143 -160.605 354.83L276.817 22.3565C286.744 26.0752 296.417 30.2234 305.807 34.775L-151.291 382.203ZM-138.117 410.091C-133.525 418.525 -128.48 426.727 -123.01 434.674L359.813 67.6926C351.799 61.6605 343.448 55.9703 334.789 50.6476L-138.117 410.091ZM-132.943 152.466C-94.9423 88.6096 -30.5007 39.0772 47.4374 15.3638L-132.943 152.466ZM-121.27 437.173C-117.298 442.812 -113.112 448.319 -108.72 453.685L-121.27 437.173ZM-104.613 458.592C-98.6604 465.548 -92.3574 472.254 -85.7271 478.69L403.069 107.169C396.917 100.354 390.42 93.7948 383.602 87.5123L-104.613 458.592ZM80.8302 564.668C70.2914 562.561 59.9482 559.996 49.8288 556.996L469.232 238.218C470.992 247.54 472.243 257.015 472.961 266.619L80.8302 564.668ZM-62.586 499.002C-39.2581 517.516 -12.8728 533.055 15.814 544.948L461.115 206.486C458.17 197.415 454.732 188.528 450.829 179.852L-10.9753 530.857L-29.2345 506.834L436.701 152.689C432.204 145.116 427.336 137.744 422.117 130.592L-62.586 499.002ZM151.813 571.641C142.104 571.641 132.496 571.26 123.006 570.512L473 304.491C472.039 317.724 470.064 330.713 467.143 343.395L167.274 571.317C162.151 571.533 156.996 571.641 151.813 571.641ZM227.04 563.792C328.063 542.311 410.571 478.53 449.494 394.711L227.04 563.792Z" fill="#CEEFF6" fill-opacity="0.2"/>
</svg>
