<svg width="284" height="28" viewBox="0 0 284 28" fill="none" xmlns="http://www.w3.org/2000/svg">
<path fill-rule="evenodd" clip-rule="evenodd" d="M284 4V7.96947L261.335 27.2792H249.196L281.052 0.139708C282.751 0.601488 284 2.15484 284 4ZM276.649 27.2792H265.902L284 11.8605V21.0161L276.649 27.2792ZM267.294 0H276.648L244.629 27.2792H235.275L267.294 0ZM281.613 26.9405C282.329 26.6246 282.935 26.1049 283.357 25.4549L281.613 26.9405ZM262.727 0H250.588L218.569 27.2792H230.707L262.727 0ZM218.569 0H230.707L198.688 27.2792H186.549L218.569 0ZM214.001 27.2792H203.255L235.274 0H246.021L214.001 27.2792ZM201.863 0H214.001L181.982 27.2792H169.843L201.863 0.00010981L201.863 0ZM131.864 0H119.725L87.7057 27.2792H99.8444L131.864 0ZM104.412 27.2792H116.55L148.57 0H136.431L104.412 27.2792ZM87.7057 0H99.8443L67.8246 27.2792H55.6861L87.7057 0ZM83.1384 27.2792H72.3919L104.411 0H115.158L83.1384 27.2792ZM71 0H83.1385L51.1189 27.2792H38.9804L71 0ZM165.276 27.2792H153.137L185.157 0H197.296L165.276 27.2792ZM153.137 0H165.276L133.256 27.2792H121.118L153.137 0ZM148.57 27.2792H137.824L169.843 0H180.59L148.57 27.2792ZM66.4328 0H54.2941L22.2745 27.2792H34.4132L66.4328 0ZM22.2745 0H34.4131L2.66239 27.0501C1.11103 26.4998 0 25.0192 0 23.2792V18.9768L22.2745 0ZM17.7072 27.2792H6.96068L38.9803 0H49.7269L17.7072 27.2792ZM4 0H17.7073L0 15.0858V4C0 1.79087 1.79086 0 4 0Z" fill="#BDFBD6"/>
</svg>
