<svg width="22" height="23" viewBox="0 0 22 23" fill="none" xmlns="http://www.w3.org/2000/svg">
<path d="M22 11.5C22 5.14872 17.0751 0 11 0C4.92486 0 0 5.14872 0 11.5C0 17.24 4.02254 21.9976 9.28125 22.8603V14.8242H6.48828V11.5H9.28125V8.96641C9.28125 6.08422 10.9235 4.49219 13.4361 4.49219C14.6396 4.49219 15.8984 4.7168 15.8984 4.7168V7.54688H14.5114C13.1449 7.54688 12.7188 8.43334 12.7188 9.34278V11.5H15.7695L15.2818 14.8242H12.7188V22.8603C17.9775 21.9976 22 17.24 22 11.5Z" fill="#F7ADC7"/>
<path d="M15.2818 14.8242L15.7695 11.5H12.7187V9.34278C12.7187 8.43334 13.1449 7.54688 14.5113 7.54688H15.8984V4.7168C15.8984 4.7168 14.6396 4.49219 13.4361 4.49219C10.9234 4.49219 9.28122 6.08422 9.28122 8.96641V11.5H6.48825V14.8242H9.28122V22.8603C9.84125 22.9522 10.4153 23 11 23C11.5847 23 12.1587 22.9522 12.7187 22.8603V14.8242H15.2818Z" fill="white"/>
</svg>
