<svg width="23" height="23" viewBox="0 0 23 23" fill="none" xmlns="http://www.w3.org/2000/svg">
<path fill-rule="evenodd" clip-rule="evenodd" d="M5.5946 11.5C5.5946 8.23852 8.23852 5.5946 11.5 5.5946C14.7615 5.5946 17.4054 8.23852 17.4054 11.5C17.4054 14.7615 14.7615 17.4054 11.5 17.4054C8.23852 17.4054 5.5946 14.7615 5.5946 11.5ZM11.5 15.3333C9.3829 15.3333 7.66667 13.6171 7.66667 11.5C7.66667 9.3829 9.3829 7.66667 11.5 7.66667C13.6171 7.66667 15.3333 9.3829 15.3333 11.5C15.3333 13.6171 13.6171 15.3333 11.5 15.3333Z" fill="url(#paint0_linear_46_1805)"/>
<path fill-rule="evenodd" clip-rule="evenodd" d="M5.5946 11.5C5.5946 8.23852 8.23852 5.5946 11.5 5.5946C14.7615 5.5946 17.4054 8.23852 17.4054 11.5C17.4054 14.7615 14.7615 17.4054 11.5 17.4054C8.23852 17.4054 5.5946 14.7615 5.5946 11.5ZM11.5 15.3333C9.3829 15.3333 7.66667 13.6171 7.66667 11.5C7.66667 9.3829 9.3829 7.66667 11.5 7.66667C13.6171 7.66667 15.3333 9.3829 15.3333 11.5C15.3333 13.6171 13.6171 15.3333 11.5 15.3333Z" fill="#F7ADC7"/>
<path d="M17.6387 6.74126C18.4009 6.74126 19.0187 6.12345 19.0187 5.36129C19.0187 4.59912 18.4009 3.98126 17.6387 3.98126C16.8766 3.98126 16.2587 4.59912 16.2587 5.36129C16.2587 6.12345 16.8766 6.74126 17.6387 6.74126Z" fill="url(#paint1_linear_46_1805)"/>
<path d="M17.6387 6.74126C18.4009 6.74126 19.0187 6.12345 19.0187 5.36129C19.0187 4.59912 18.4009 3.98126 17.6387 3.98126C16.8766 3.98126 16.2587 4.59912 16.2587 5.36129C16.2587 6.12345 16.8766 6.74126 17.6387 6.74126Z" fill="#F7ADC7"/>
<path fill-rule="evenodd" clip-rule="evenodd" d="M11.5 0C8.37679 0 7.98516 0.0132383 6.75856 0.0692044C5.53452 0.125033 4.69855 0.319454 3.96706 0.603758C3.21084 0.897603 2.56951 1.29083 1.93014 1.93014C1.29083 2.56951 0.897603 3.21084 0.603758 3.96706C0.319454 4.69855 0.125033 5.53452 0.0692044 6.75856C0.0132383 7.98516 0 8.37679 0 11.5C0 14.6232 0.0132383 15.0148 0.0692044 16.2414C0.125033 17.4655 0.319454 18.3015 0.603758 19.0329C0.897603 19.7892 1.29083 20.4305 1.93014 21.0699C2.56951 21.7092 3.21084 22.1024 3.96706 22.3963C4.69855 22.6805 5.53452 22.875 6.75856 22.9308C7.98516 22.9868 8.37679 23 11.5 23C14.6232 23 15.0148 22.9868 16.2414 22.9308C17.4655 22.875 18.3015 22.6805 19.0329 22.3963C19.7892 22.1024 20.4305 21.7092 21.0699 21.0699C21.7092 20.4305 22.1024 19.7892 22.3963 19.0329C22.6805 18.3015 22.875 17.4655 22.9308 16.2414C22.9868 15.0148 23 14.6232 23 11.5C23 8.37679 22.9868 7.98516 22.9308 6.75856C22.875 5.53452 22.6805 4.69855 22.3963 3.96706C22.1024 3.21084 21.7092 2.56951 21.0699 1.93014C20.4305 1.29083 19.7892 0.897603 19.0329 0.603758C18.3015 0.319454 17.4655 0.125033 16.2414 0.0692044C15.0148 0.0132383 14.6232 0 11.5 0ZM11.5 2.07207C14.5706 2.07207 14.9344 2.0838 16.147 2.13913C17.2682 2.19025 17.8771 2.3776 18.2824 2.53509C18.8192 2.74371 19.2023 2.99291 19.6047 3.39535C20.0071 3.79775 20.2563 4.18084 20.4649 4.71763C20.6224 5.12286 20.8097 5.73177 20.8609 6.85301C20.9162 8.06564 20.9279 8.42938 20.9279 11.5C20.9279 14.5706 20.9162 14.9344 20.8609 16.147C20.8097 17.2682 20.6224 17.8771 20.4649 18.2824C20.2563 18.8192 20.0071 19.2023 19.6047 19.6046C19.2023 20.0071 18.8192 20.2563 18.2824 20.4649C17.8771 20.6224 17.2682 20.8097 16.147 20.8609C14.9345 20.9162 14.5709 20.9279 11.5 20.9279C8.42915 20.9279 8.06551 20.9162 6.85302 20.8609C5.73178 20.8097 5.12286 20.6224 4.71763 20.4649C4.18084 20.2563 3.79775 20.0071 3.39535 19.6046C2.99295 19.2023 2.74371 18.8192 2.53509 18.2824C2.3776 17.8771 2.19026 17.2682 2.13913 16.147C2.0838 14.9344 2.07207 14.5706 2.07207 11.5C2.07207 8.42938 2.0838 8.06564 2.13913 6.85301C2.19026 5.73177 2.3776 5.12286 2.53509 4.71763C2.74371 4.18084 2.99291 3.79775 3.39535 3.39535C3.79775 2.99291 4.18084 2.74371 4.71763 2.53509C5.12286 2.3776 5.73178 2.19025 6.85302 2.13913C8.06564 2.0838 8.42938 2.07207 11.5 2.07207Z" fill="url(#paint2_linear_46_1805)"/>
<path fill-rule="evenodd" clip-rule="evenodd" d="M11.5 0C8.37679 0 7.98516 0.0132383 6.75856 0.0692044C5.53452 0.125033 4.69855 0.319454 3.96706 0.603758C3.21084 0.897603 2.56951 1.29083 1.93014 1.93014C1.29083 2.56951 0.897603 3.21084 0.603758 3.96706C0.319454 4.69855 0.125033 5.53452 0.0692044 6.75856C0.0132383 7.98516 0 8.37679 0 11.5C0 14.6232 0.0132383 15.0148 0.0692044 16.2414C0.125033 17.4655 0.319454 18.3015 0.603758 19.0329C0.897603 19.7892 1.29083 20.4305 1.93014 21.0699C2.56951 21.7092 3.21084 22.1024 3.96706 22.3963C4.69855 22.6805 5.53452 22.875 6.75856 22.9308C7.98516 22.9868 8.37679 23 11.5 23C14.6232 23 15.0148 22.9868 16.2414 22.9308C17.4655 22.875 18.3015 22.6805 19.0329 22.3963C19.7892 22.1024 20.4305 21.7092 21.0699 21.0699C21.7092 20.4305 22.1024 19.7892 22.3963 19.0329C22.6805 18.3015 22.875 17.4655 22.9308 16.2414C22.9868 15.0148 23 14.6232 23 11.5C23 8.37679 22.9868 7.98516 22.9308 6.75856C22.875 5.53452 22.6805 4.69855 22.3963 3.96706C22.1024 3.21084 21.7092 2.56951 21.0699 1.93014C20.4305 1.29083 19.7892 0.897603 19.0329 0.603758C18.3015 0.319454 17.4655 0.125033 16.2414 0.0692044C15.0148 0.0132383 14.6232 0 11.5 0ZM11.5 2.07207C14.5706 2.07207 14.9344 2.0838 16.147 2.13913C17.2682 2.19025 17.8771 2.3776 18.2824 2.53509C18.8192 2.74371 19.2023 2.99291 19.6047 3.39535C20.0071 3.79775 20.2563 4.18084 20.4649 4.71763C20.6224 5.12286 20.8097 5.73177 20.8609 6.85301C20.9162 8.06564 20.9279 8.42938 20.9279 11.5C20.9279 14.5706 20.9162 14.9344 20.8609 16.147C20.8097 17.2682 20.6224 17.8771 20.4649 18.2824C20.2563 18.8192 20.0071 19.2023 19.6047 19.6046C19.2023 20.0071 18.8192 20.2563 18.2824 20.4649C17.8771 20.6224 17.2682 20.8097 16.147 20.8609C14.9345 20.9162 14.5709 20.9279 11.5 20.9279C8.42915 20.9279 8.06551 20.9162 6.85302 20.8609C5.73178 20.8097 5.12286 20.6224 4.71763 20.4649C4.18084 20.2563 3.79775 20.0071 3.39535 19.6046C2.99295 19.2023 2.74371 18.8192 2.53509 18.2824C2.3776 17.8771 2.19026 17.2682 2.13913 16.147C2.0838 14.9344 2.07207 14.5706 2.07207 11.5C2.07207 8.42938 2.0838 8.06564 2.13913 6.85301C2.19026 5.73177 2.3776 5.12286 2.53509 4.71763C2.74371 4.18084 2.99291 3.79775 3.39535 3.39535C3.79775 2.99291 4.18084 2.74371 4.71763 2.53509C5.12286 2.3776 5.73178 2.19025 6.85302 2.13913C8.06564 2.0838 8.42938 2.07207 11.5 2.07207Z" fill="#F7ADC7"/>
<defs>
<linearGradient id="paint0_linear_46_1805" x1="1.34198" y1="1.20918" x2="8.59368" y2="29.2596" gradientUnits="userSpaceOnUse">
<stop stop-color="#B3B3B3"/>
</linearGradient>
<linearGradient id="paint1_linear_46_1805" x1="1.34198" y1="1.20918" x2="8.59368" y2="29.2596" gradientUnits="userSpaceOnUse">
<stop stop-color="#B3B3B3"/>
</linearGradient>
<linearGradient id="paint2_linear_46_1805" x1="1.34198" y1="1.20918" x2="8.59368" y2="29.2596" gradientUnits="userSpaceOnUse">
<stop stop-color="#B3B3B3"/>
</linearGradient>
</defs>
</svg>
