<svg width="23" height="23" viewBox="0 0 23 23" fill="none" xmlns="http://www.w3.org/2000/svg">
<path d="M20.6453 6.70314C20.6594 6.91108 20.6594 7.11903 20.6594 7.32889C20.6594 13.7234 15.9127 21.0983 7.23311 21.0983V21.0945C4.66915 21.0983 2.15844 20.3451 0 18.925C0.372821 18.971 0.747512 18.994 1.12314 18.9949C3.24794 18.9968 5.312 18.2657 6.98363 16.9193C4.96441 16.88 3.19374 15.5298 2.57518 13.5586C3.28251 13.6985 4.01133 13.6698 4.70559 13.4753C2.50416 13.0191 0.920374 11.0355 0.920374 8.7318C0.920374 8.71072 0.920374 8.6906 0.920374 8.67047C1.57632 9.04516 2.31075 9.2531 3.06199 9.2761C0.988584 7.85498 0.349462 5.02616 1.60154 2.81446C3.99732 5.83782 7.53211 7.67578 11.3267 7.87031C10.9464 6.1895 11.4659 4.42819 12.6918 3.24664C14.5924 1.41442 17.5815 1.50834 19.368 3.45651C20.4248 3.24281 21.4377 2.84513 22.3646 2.28166C22.0124 3.40188 21.2751 4.35345 20.2903 4.95812C21.2256 4.84504 22.1394 4.58823 23 4.19629C22.3665 5.1699 21.5685 6.01797 20.6453 6.70314Z" fill="#F7ADC7"/>
</svg>
